{
    "accessors": [
        {
            "bufferView": 2,
            "byteOffset": 0,
            "componentType": 5123,
            "count": 3126,
            "max": [
                2587
            ],
            "min": [
                0
            ],
            "name": "accessor_buffer_Example005_0",
            "type": "SCALAR"
        },
        {
            "bufferView": 1,
            "byteOffset": 0,
            "componentType": 5126,
            "count": 2588,
            "max": [
                0.9945235848426819,
                1.0,
                1.0
            ],
            "min": [
                -0.9945235848426819,
                -1.0,
                -1.0
            ],
            "name": "accessor_buffer_Example005_NORMAL_0",
            "type": "VEC3"
        },
        {
            "bufferView": 0,
            "byteOffset": 0,
            "componentType": 5126,
            "count": 2588,
            "max": [
                120.0,
                119.34300231933594,
                160.0
            ],
            "min": [
                -120.0,
                -119.34300231933594,
                -120.0
            ],
            "name": "accessor_buffer_Example005_POSITION_0",
            "type": "VEC3"
        }
    ],
    "asset": {
        "copyright": "",
        "generator": "blendergltf v1.1.0",
        "version": "2.0"
    },
    "bufferViews": [
        {
            "buffer": 0,
            "byteLength": 31056,
            "byteOffset": 0,
            "byteStride": 12,
            "name": "bufferView_buffer_Example005_POSITION_0",
            "target": 34962
        },
        {
            "buffer": 0,
            "byteLength": 31056,
            "byteOffset": 31056,
            "byteStride": 12,
            "name": "bufferView_buffer_Example005_NORMAL_0",
            "target": 34962
        },
        {
            "buffer": 0,
            "byteLength": 6256,
            "byteOffset": 62112,
            "name": "bufferView_buffer_Example005_0",
            "target": 34963
        }
    ],
    "buffers": [
        {
            "byteLength": 68368,
            "name": "buffer_example5",
            "uri": "buffer_example5.bin"
        }
    ],
    "cameras": [
        {
            "name": "Camera",
            "perspective": {
                "aspectRatio": 1.703595982340029,
                "yfov": 0.5033799409866333,
                "zfar": 100.0,
                "znear": 0.10000000149011612
            },
            "type": "perspective"
        }
    ],
    "materials": [
        {
            "doubleSided": false,
            "emissiveFactor": [
                0.0,
                0.0,
                0.0
            ],
            "name": "Material.001",
            "pbrMetallicRoughness": {
                "baseColorFactor": [
                    0.48742595314979553,
                    0.09092387557029724,
                    0.64000004529953,
                    1.0
                ],
                "metallicFactor": 0.0,
                "roughnessFactor": 1.0
            }
        }
    ],
    "meshes": [
        {
            "name": "Example005",
            "primitives": [
                {
                    "attributes": {
                        "NORMAL": 1,
                        "POSITION": 2
                    },
                    "indices": 0,
                    "material": 0,
                    "mode": 4
                }
            ]
        }
    ],
    "nodes": [
        {
            "camera": 0,
            "name": "Camera",
            "rotation": [
                0.483536034822464,
                0.20870360732078552,
                0.33687159419059753,
                0.7804827094078064
            ],
            "scale": [
                1.0,
                1.0,
                1.0
            ],
            "translation": [
                7.481131553649902,
                -6.5076398849487305,
                5.34366512298584
            ]
        },
        {
            "mesh": 0,
            "name": "Example005",
            "rotation": [
                0.0,
                0.0,
                0.0,
                1.0
            ],
            "scale": [
                0.07999999821186066,
                0.07999999821186066,
                0.07999999821186066
            ],
            "translation": [
                2.959381103515625,
                -0.345731258392334,
                11.96378231048584
            ]
        },
        {
            "name": "Lamp",
            "rotation": [
                0.16907575726509094,
                0.27217137813568115,
                0.7558802962303162,
                0.570947527885437
            ],
            "scale": [
                1.0,
                0.9999999403953552,
                1.0
            ],
            "translation": [
                4.076245307922363,
                1.0054539442062378,
                5.903861999511719
            ]
        },
        {
            "children": [
                1,
                2,
                0
            ],
            "matrix": [
                -1.0,
                0.0,
                0.0,
                0.0,
                0.0,
                0.0,
                1.0,
                0.0,
                0.0,
                1.0,
                0.0,
                0.0,
                0.0,
                0.0,
                0.0,
                1.0
            ],
            "name": "Scene_root"
        }
    ],
    "scene": 0,
    "scenes": [
        {
            "extras": {
                "active_camera": 0,
                "background_color": [
                    0.05087608844041824,
                    0.05087608844041824,
                    0.05087608844041824
                ],
                "frames_per_second": 24
            },
            "name": "Scene",
            "nodes": [
                3
            ]
        }
    ]
}
